<svg width="141" height="24" viewBox="0 0 141 24" fill="none" xmlns="http://www.w3.org/2000/svg">
<path d="M18.77 1.42178C19.551 0.640733 20.8174 0.640733 21.5984 1.42178L30.7623 10.5857C31.5434 11.3667 31.5434 12.6331 30.7623 13.4141L21.5984 22.578C20.8174 23.3591 19.551 23.3591 18.77 22.578L9.60609 13.4141C8.82504 12.6331 8.82504 11.3667 9.60609 10.5857L18.77 1.42178Z" fill="#4CA154"/>
<path d="M10.5781 1.42196C11.3591 0.640916 12.6255 0.640916 13.4065 1.42197L22.5704 10.5859C23.3515 11.3669 23.3515 12.6332 22.5704 13.4143L13.4065 22.5782C12.6255 23.3592 11.3591 23.3592 10.5781 22.5782L1.4142 13.4143C0.633147 12.6332 0.633147 11.3669 1.4142 10.5859L10.5781 1.42196Z" fill="#2A4DD0"/>
<path d="M55.7686 17.808H49.4806L48.4726 20.784H44.1766L50.2726 3.93599H55.0246L61.1206 20.784H56.7766L55.7686 17.808ZM54.7126 14.64L52.6246 8.47199L50.5606 14.64H54.7126Z" fill="#F2F9FE"/>
<path d="M66.8399 3.02399V20.784H62.7359V3.02399H66.8399Z" fill="#F2F9FE"/>
<path d="M68.7581 14.064C68.7581 12.688 69.0141 11.48 69.5261 10.44C70.0541 9.39999 70.7661 8.59999 71.6621 8.03999C72.5581 7.47999 73.5581 7.19999 74.6621 7.19999C75.6061 7.19999 76.4301 7.39199 77.1341 7.77599C77.8541 8.15999 78.4061 8.66399 78.7901 9.28799V7.39199H82.8941V20.784H78.7901V18.888C78.3901 19.512 77.8301 20.016 77.1101 20.4C76.4061 20.784 75.5821 20.976 74.6381 20.976C73.5501 20.976 72.5581 20.696 71.6621 20.136C70.7661 19.56 70.0541 18.752 69.5261 17.712C69.0141 16.656 68.7581 15.44 68.7581 14.064ZM78.7901 14.088C78.7901 13.064 78.5021 12.256 77.9261 11.664C77.3661 11.072 76.6781 10.776 75.8621 10.776C75.0461 10.776 74.3501 11.072 73.7741 11.664C73.2141 12.24 72.9341 13.04 72.9341 14.064C72.9341 15.088 73.2141 15.904 73.7741 16.512C74.3501 17.104 75.0461 17.4 75.8621 17.4C76.6781 17.4 77.3661 17.104 77.9261 16.512C78.5021 15.92 78.7901 15.112 78.7901 14.088Z" fill="#F2F9FE"/>
<path d="M89.7271 9.62399C90.2071 8.88799 90.8071 8.31199 91.5271 7.89599C92.2471 7.46399 93.0471 7.24799 93.9271 7.24799V11.592H92.7991C91.7751 11.592 91.0071 11.816 90.4951 12.264C89.9831 12.696 89.7271 13.464 89.7271 14.568V20.784H85.6231V7.39199H89.7271V9.62399Z" fill="#F2F9FE"/>
<path d="M94.8328 14.064C94.8328 12.688 95.0888 11.48 95.6008 10.44C96.1288 9.39999 96.8408 8.59999 97.7368 8.03999C98.6328 7.47999 99.6328 7.19999 100.737 7.19999C101.681 7.19999 102.505 7.39199 103.209 7.77599C103.929 8.15999 104.481 8.66399 104.865 9.28799V7.39199H108.969V20.784H104.865V18.888C104.465 19.512 103.905 20.016 103.185 20.4C102.481 20.784 101.657 20.976 100.713 20.976C99.6248 20.976 98.6328 20.696 97.7368 20.136C96.8408 19.56 96.1288 18.752 95.6008 17.712C95.0888 16.656 94.8328 15.44 94.8328 14.064ZM104.865 14.088C104.865 13.064 104.577 12.256 104.001 11.664C103.441 11.072 102.753 10.776 101.937 10.776C101.121 10.776 100.425 11.072 99.8488 11.664C99.2888 12.24 99.0088 13.04 99.0088 14.064C99.0088 15.088 99.2888 15.904 99.8488 16.512C100.425 17.104 101.121 17.4 101.937 17.4C102.753 17.4 103.441 17.104 104.001 16.512C104.577 15.92 104.865 15.112 104.865 14.088Z" fill="#F2F9FE"/>
<path d="M110.882 14.064C110.882 12.688 111.138 11.48 111.65 10.44C112.178 9.39999 112.89 8.59999 113.786 8.03999C114.682 7.47999 115.682 7.19999 116.786 7.19999C117.666 7.19999 118.466 7.38399 119.186 7.75199C119.922 8.11999 120.498 8.61599 120.914 9.23999V3.02399H125.018V20.784H120.914V18.864C120.53 19.504 119.978 20.016 119.258 20.4C118.554 20.784 117.73 20.976 116.786 20.976C115.682 20.976 114.682 20.696 113.786 20.136C112.89 19.56 112.178 18.752 111.65 17.712C111.138 16.656 110.882 15.44 110.882 14.064ZM120.914 14.088C120.914 13.064 120.626 12.256 120.05 11.664C119.49 11.072 118.802 10.776 117.986 10.776C117.17 10.776 116.474 11.072 115.898 11.664C115.338 12.24 115.058 13.04 115.058 14.064C115.058 15.088 115.338 15.904 115.898 16.512C116.474 17.104 117.17 17.4 117.986 17.4C118.802 17.4 119.49 17.104 120.05 16.512C120.626 15.92 120.914 15.112 120.914 14.088Z" fill="#F2F9FE"/>
<path d="M133.843 20.976C132.531 20.976 131.347 20.696 130.291 20.136C129.251 19.576 128.427 18.776 127.819 17.736C127.227 16.696 126.931 15.48 126.931 14.088C126.931 12.712 127.235 11.504 127.843 10.464C128.451 9.40799 129.283 8.59999 130.339 8.03999C131.395 7.47999 132.579 7.19999 133.891 7.19999C135.203 7.19999 136.387 7.47999 137.443 8.03999C138.499 8.59999 139.331 9.40799 139.939 10.464C140.547 11.504 140.851 12.712 140.851 14.088C140.851 15.464 140.539 16.68 139.915 17.736C139.307 18.776 138.467 19.576 137.395 20.136C136.339 20.696 135.155 20.976 133.843 20.976ZM133.843 17.424C134.627 17.424 135.291 17.136 135.835 16.56C136.395 15.984 136.675 15.16 136.675 14.088C136.675 13.016 136.403 12.192 135.859 11.616C135.331 11.04 134.675 10.752 133.891 10.752C133.091 10.752 132.427 11.04 131.899 11.616C131.371 12.176 131.107 13 131.107 14.088C131.107 15.16 131.363 15.984 131.875 16.56C132.403 17.136 133.059 17.424 133.843 17.424Z" fill="#F2F9FE"/>
</svg>
