<svg width="99" height="30" viewBox="0 0 99 30" fill="none" xmlns="http://www.w3.org/2000/svg">
<path fill-rule="evenodd" clip-rule="evenodd" d="M21.9186 6.91865L14.9999 0L8.08129 6.91865L12.5357 11.373C13.2837 10.7556 14.2427 10.3846 15.2883 10.3846C16.186 10.3846 17.0199 10.658 17.7112 11.1261L21.9186 6.91865ZM18.627 17.4642C19.2444 16.7162 19.6153 15.7572 19.6153 14.7116C19.6153 13.8139 19.3419 12.9801 18.8739 12.2888L23.0814 8.08132L30 15L23.0814 21.9186L18.627 17.4642ZM12.8655 18.2971C13.5568 18.7651 14.3907 19.0385 15.2883 19.0385C16.0358 19.0385 16.7391 18.8489 17.3526 18.5153L21.9186 23.0813L14.9999 30L8.08129 23.0813L12.8655 18.2971ZM11.4846 12.6473C11.151 13.2608 10.9614 13.9641 10.9614 14.7116C10.9614 15.6093 11.2348 16.4431 11.7029 17.1344L6.91865 21.9186L0 15L6.91865 8.08132L11.4846 12.6473Z" fill="white"/>
<path d="M40.7693 24V6.24H48.9773C50.1293 6.24 51.0973 6.44 51.8813 6.84C52.6813 7.24 53.2893 7.776 53.7053 8.448C54.1213 9.104 54.3293 9.832 54.3293 10.632C54.3293 11.416 54.1853 12.072 53.8973 12.6C53.6093 13.112 53.2573 13.528 52.8413 13.848C52.4413 14.152 52.0493 14.36 51.6653 14.472V14.664C52.0973 14.76 52.5773 14.968 53.1053 15.288C53.6333 15.608 54.0893 16.064 54.4733 16.656C54.8573 17.248 55.0493 18.016 55.0493 18.96C55.0493 19.792 54.8493 20.592 54.4493 21.36C54.0653 22.128 53.4333 22.76 52.5533 23.256C51.6893 23.752 50.5613 24 49.1693 24H40.7693ZM48.3533 9.336H44.4653V13.464H48.3533C49.1853 13.464 49.7933 13.264 50.1773 12.864C50.5613 12.464 50.7533 11.976 50.7533 11.4C50.7533 10.84 50.5613 10.36 50.1773 9.96C49.7933 9.544 49.1853 9.336 48.3533 9.336ZM48.6413 16.296H44.4653V20.904H48.6413C49.5853 20.904 50.2653 20.68 50.6813 20.232C51.1133 19.768 51.3293 19.216 51.3293 18.576C51.3293 17.952 51.1133 17.416 50.6813 16.968C50.2653 16.52 49.5853 16.296 48.6413 16.296ZM63.641 24.24C62.521 24.24 61.553 24.056 60.737 23.688C59.921 23.304 59.249 22.8 58.721 22.176C58.193 21.536 57.793 20.824 57.521 20.04C57.265 19.256 57.137 18.448 57.137 17.616C57.137 16.816 57.257 16.032 57.497 15.264C57.753 14.48 58.137 13.768 58.649 13.128C59.177 12.488 59.841 11.984 60.641 11.616C61.457 11.232 62.417 11.04 63.521 11.04C64.689 11.04 65.721 11.296 66.617 11.808C67.529 12.32 68.241 13.08 68.753 14.088C69.265 15.08 69.521 16.288 69.521 17.712V18.6H60.809C60.857 19.368 61.121 20.032 61.601 20.592C62.097 21.152 62.777 21.432 63.641 21.432C64.137 21.432 64.537 21.36 64.841 21.216C65.161 21.056 65.409 20.88 65.585 20.688C65.761 20.48 65.881 20.296 65.945 20.136C66.009 19.976 66.041 19.896 66.041 19.896H69.401C69.401 19.896 69.361 20.048 69.281 20.352C69.217 20.64 69.073 21 68.849 21.432C68.625 21.864 68.297 22.296 67.865 22.728C67.449 23.16 66.897 23.52 66.209 23.808C65.521 24.096 64.665 24.24 63.641 24.24ZM60.809 16.392H66.017C65.969 15.512 65.705 14.856 65.225 14.424C64.745 13.992 64.153 13.776 63.449 13.776C62.745 13.776 62.145 14.008 61.649 14.472C61.153 14.92 60.873 15.56 60.809 16.392ZM78.2397 24.24C77.1197 24.24 76.1437 24.056 75.3117 23.688C74.4797 23.304 73.7917 22.8 73.2477 22.176C72.7037 21.552 72.2957 20.848 72.0237 20.064C71.7517 19.264 71.6157 18.456 71.6157 17.64C71.6157 16.824 71.7517 16.024 72.0237 15.24C72.2957 14.456 72.7037 13.752 73.2477 13.128C73.7917 12.488 74.4797 11.984 75.3117 11.616C76.1437 11.232 77.1197 11.04 78.2397 11.04C79.3757 11.04 80.3117 11.208 81.0477 11.544C81.7837 11.864 82.3677 12.272 82.7997 12.768C83.2477 13.248 83.5757 13.736 83.7837 14.232C83.9917 14.712 84.1197 15.12 84.1677 15.456C84.2317 15.776 84.2637 15.936 84.2637 15.936H80.8557C80.8557 15.936 80.8237 15.84 80.7597 15.648C80.7117 15.44 80.5997 15.208 80.4237 14.952C80.2637 14.68 80.0157 14.448 79.6797 14.256C79.3437 14.048 78.8957 13.944 78.3357 13.944C77.6477 13.944 77.0717 14.12 76.6077 14.472C76.1597 14.808 75.8237 15.256 75.5997 15.816C75.3757 16.376 75.2637 16.984 75.2637 17.64C75.2637 18.296 75.3757 18.904 75.5997 19.464C75.8237 20.024 76.1597 20.48 76.6077 20.832C77.0717 21.168 77.6477 21.336 78.3357 21.336C78.8957 21.336 79.3437 21.24 79.6797 21.048C80.0157 20.84 80.2637 20.608 80.4237 20.352C80.5997 20.08 80.7117 19.848 80.7597 19.656C80.8237 19.448 80.8557 19.344 80.8557 19.344H84.2637C84.2637 19.344 84.2317 19.512 84.1677 19.848C84.1197 20.168 83.9917 20.576 83.7837 21.072C83.5757 21.552 83.2477 22.04 82.7997 22.536C82.3677 23.016 81.7837 23.424 81.0477 23.76C80.3117 24.08 79.3757 24.24 78.2397 24.24ZM89.8207 24L85.1647 11.28H88.8127L91.7887 19.896L94.6447 11.28H98.3167L93.6367 24H89.8207Z" fill="white"/>
</svg>
