<svg width="24" height="24" viewBox="0 0 24 24" fill="none" xmlns="http://www.w3.org/2000/svg">
<path d="M9.07107 15C8.68054 14.6095 8.68054 13.9763 9.07107 13.5858L14.0208 8.63604C14.4113 8.24551 15.0445 8.24551 15.435 8.63604C15.8256 9.02656 15.8256 9.65973 15.435 10.0503L10.4853 15C10.0948 15.3905 9.46159 15.3905 9.07107 15Z" fill="#F2F6F9"/>
<path fill-rule="evenodd" clip-rule="evenodd" d="M5.53553 11.4645C3.58291 13.4171 3.58291 16.5829 5.53553 18.5355C7.48816 20.4882 10.654 20.4882 12.6066 18.5355L14.3744 16.7678C14.7649 16.3772 14.7649 15.7441 14.3744 15.3536C13.9838 14.963 13.3507 14.963 12.9602 15.3536L11.1924 17.1213C10.0208 18.2929 8.12132 18.2929 6.94975 17.1213C5.77817 15.9497 5.77817 14.0503 6.94975 12.8787L8.71751 11.1109C9.10804 10.7204 9.10804 10.0872 8.71751 9.6967C8.32699 9.30617 7.69383 9.30617 7.3033 9.6967L5.53553 11.4645ZM11.8995 5.10051L10.1317 6.86827C9.7412 7.2588 9.7412 7.89196 10.1317 8.28249C10.5223 8.67301 11.1554 8.67301 11.5459 8.28249L13.3137 6.51472C14.4853 5.34315 16.3848 5.34315 17.5563 6.51472C18.7279 7.68629 18.7279 9.58579 17.5563 10.7574L15.7886 12.5251C15.3981 12.9157 15.3981 13.5488 15.7886 13.9393C16.1791 14.3299 16.8123 14.3299 17.2028 13.9393L18.9706 12.1716C20.9232 10.219 20.9232 7.05313 18.9706 5.10051C17.0179 3.14788 13.8521 3.14788 11.8995 5.10051Z" fill="#5D80E8"/>
</svg>
