<svg width="24" height="24" viewBox="0 0 24 24" fill="none" xmlns="http://www.w3.org/2000/svg">
<path d="M10.1438 6.62759C10.9304 4.6666 11.3237 3.6861 12 3.6861C12.6763 3.6861 13.0696 4.6666 13.8562 6.6276L13.8929 6.71891C14.3373 7.82678 14.5595 8.38071 15.0123 8.7174C15.4652 9.05409 16.0596 9.10733 17.2485 9.2138L17.4635 9.23305C19.4093 9.40732 20.3822 9.49445 20.5904 10.1134C20.7985 10.7324 20.076 11.3898 18.631 12.7044L18.1487 13.1432C17.4172 13.8087 17.0514 14.1415 16.881 14.5776C16.8492 14.659 16.8227 14.7423 16.8018 14.8271C16.6898 15.2818 16.7969 15.7645 17.0111 16.73L17.0778 17.0305C17.4714 18.8049 17.6683 19.692 17.3246 20.0747C17.1962 20.2177 17.0293 20.3206 16.8438 20.3712C16.3476 20.5066 15.6432 19.9326 14.2342 18.7845C13.309 18.0306 12.8464 17.6537 12.3153 17.5689C12.1064 17.5355 11.8936 17.5355 11.6847 17.5689C11.1536 17.6537 10.691 18.0306 9.7658 18.7845C8.35684 19.9326 7.65237 20.5066 7.15617 20.3712C6.97075 20.3206 6.80384 20.2177 6.67542 20.0747C6.33174 19.692 6.52857 18.8049 6.92225 17.0305L6.98892 16.73C7.20313 15.7645 7.31024 15.2818 7.19818 14.8271C7.17728 14.7423 7.15084 14.659 7.11904 14.5776C6.94857 14.1415 6.58282 13.8087 5.85131 13.1432L5.36903 12.7044C3.92398 11.3898 3.20146 10.7324 3.40964 10.1134C3.61782 9.49445 4.59073 9.40732 6.53654 9.23305L6.75148 9.2138C7.94039 9.10733 8.53485 9.05409 8.9877 8.7174C9.44055 8.38071 9.66275 7.82678 10.1071 6.71891L10.1438 6.62759Z" stroke="#6F757C" stroke-width="2"/>
</svg>
